<mxfile host="app.diagrams.net" modified="2021-03-17T18:18:09.179Z" agent="5.0 (Windows NT 10.0; Win64; x64) AppleWebKit/537.36 (KHTML, like Gecko) Chrome/89.0.4389.90 Safari/537.36 Edg/89.0.774.54" etag="sUjB0Kpe9SUHRtABoOXs" version="14.4.8" type="github">
  <diagram id="H2YuXicPiN26pRsMmfsW" name="Page-1">
    <mxGraphModel dx="2807" dy="1112" grid="1" gridSize="10" guides="1" tooltips="1" connect="1" arrows="1" fold="1" page="1" pageScale="1" pageWidth="827" pageHeight="1169" math="0" shadow="0">
      <root>
        <mxCell id="0" />
        <mxCell id="1" parent="0" />
        <mxCell id="oqWxi4hjjn00auRa6e1r-2" value="SName" style="rounded=0;whiteSpace=wrap;html=1;fontStyle=4" parent="1" vertex="1">
          <mxGeometry x="160" y="170" width="80" height="30" as="geometry" />
        </mxCell>
        <mxCell id="oqWxi4hjjn00auRa6e1r-3" value="Owner" style="rounded=0;whiteSpace=wrap;html=1;" parent="1" vertex="1">
          <mxGeometry x="240" y="170" width="80" height="30" as="geometry" />
        </mxCell>
        <mxCell id="oqWxi4hjjn00auRa6e1r-6" value="&lt;b&gt;SHIP&lt;/b&gt;" style="rounded=0;whiteSpace=wrap;html=1;" parent="1" vertex="1">
          <mxGeometry x="-80" y="170" width="120" height="30" as="geometry" />
        </mxCell>
        <mxCell id="oqWxi4hjjn00auRa6e1r-7" value="Type" style="rounded=0;whiteSpace=wrap;html=1;fontStyle=4" parent="1" vertex="1">
          <mxGeometry x="160" y="250" width="80" height="30" as="geometry" />
        </mxCell>
        <mxCell id="oqWxi4hjjn00auRa6e1r-8" value="Tonnage" style="rounded=0;whiteSpace=wrap;html=1;" parent="1" vertex="1">
          <mxGeometry x="240" y="250" width="80" height="30" as="geometry" />
        </mxCell>
        <mxCell id="oqWxi4hjjn00auRa6e1r-9" value="HuIl" style="rounded=0;whiteSpace=wrap;html=1;" parent="1" vertex="1">
          <mxGeometry x="320" y="250" width="80" height="30" as="geometry" />
        </mxCell>
        <mxCell id="oqWxi4hjjn00auRa6e1r-10" value="Name" style="rounded=0;whiteSpace=wrap;html=1;fontStyle=4" parent="1" vertex="1">
          <mxGeometry x="160" y="330" width="80" height="30" as="geometry" />
        </mxCell>
        <mxCell id="oqWxi4hjjn00auRa6e1r-11" value="Continent" style="rounded=0;whiteSpace=wrap;html=1;fontStyle=0" parent="1" vertex="1">
          <mxGeometry x="240" y="330" width="80" height="30" as="geometry" />
        </mxCell>
        <mxCell id="oqWxi4hjjn00auRa6e1r-14" value="Name" style="rounded=0;whiteSpace=wrap;html=1;fontStyle=4" parent="1" vertex="1">
          <mxGeometry x="160" y="410" width="80" height="30" as="geometry" />
        </mxCell>
        <mxCell id="oqWxi4hjjn00auRa6e1r-18" value="Date" style="rounded=0;whiteSpace=wrap;html=1;" parent="1" vertex="1">
          <mxGeometry x="240" y="490" width="80" height="30" as="geometry" />
        </mxCell>
        <mxCell id="oqWxi4hjjn00auRa6e1r-19" value="Time" style="rounded=0;whiteSpace=wrap;html=1;" parent="1" vertex="1">
          <mxGeometry x="320" y="490" width="80" height="30" as="geometry" />
        </mxCell>
        <mxCell id="oqWxi4hjjn00auRa6e1r-20" value="Longiude" style="rounded=0;whiteSpace=wrap;html=1;" parent="1" vertex="1">
          <mxGeometry x="400" y="490" width="80" height="30" as="geometry" />
        </mxCell>
        <mxCell id="oqWxi4hjjn00auRa6e1r-22" value="" style="curved=1;endArrow=classic;html=1;entryX=0;entryY=0.5;entryDx=0;entryDy=0;" parent="1" target="oqWxi4hjjn00auRa6e1r-10" edge="1">
          <mxGeometry width="50" height="50" relative="1" as="geometry">
            <mxPoint x="160" y="590" as="sourcePoint" />
            <mxPoint x="140" y="210" as="targetPoint" />
            <Array as="points">
              <mxPoint x="90" y="520" />
              <mxPoint x="90" y="470" />
            </Array>
          </mxGeometry>
        </mxCell>
        <mxCell id="oqWxi4hjjn00auRa6e1r-23" value="" style="curved=1;endArrow=classic;html=1;entryX=0;entryY=0.75;entryDx=0;entryDy=0;exitX=0.369;exitY=0.013;exitDx=0;exitDy=0;exitPerimeter=0;" parent="1" source="oqWxi4hjjn00auRa6e1r-14" target="oqWxi4hjjn00auRa6e1r-7" edge="1">
          <mxGeometry width="50" height="50" relative="1" as="geometry">
            <mxPoint x="190" y="400" as="sourcePoint" />
            <mxPoint x="150" y="310" as="targetPoint" />
            <Array as="points">
              <mxPoint x="150" y="360" />
              <mxPoint x="120" y="310" />
            </Array>
          </mxGeometry>
        </mxCell>
        <mxCell id="oqWxi4hjjn00auRa6e1r-24" value="" style="curved=1;endArrow=classic;html=1;entryX=0;entryY=1;entryDx=0;entryDy=0;exitX=0;exitY=0.5;exitDx=0;exitDy=0;" parent="1" source="oqWxi4hjjn00auRa6e1r-32" target="oqWxi4hjjn00auRa6e1r-2" edge="1">
          <mxGeometry width="50" height="50" relative="1" as="geometry">
            <mxPoint x="353.1199999999999" y="439.73" as="sourcePoint" />
            <mxPoint x="200" y="490" as="targetPoint" />
            <Array as="points">
              <mxPoint x="80" y="420" />
              <mxPoint x="90" y="380" />
              <mxPoint x="120" y="290" />
            </Array>
          </mxGeometry>
        </mxCell>
        <mxCell id="oqWxi4hjjn00auRa6e1r-25" value="SHIP_TYPE" style="rounded=0;whiteSpace=wrap;html=1;fontStyle=1" parent="1" vertex="1">
          <mxGeometry x="-80" y="250" width="120" height="30" as="geometry" />
        </mxCell>
        <mxCell id="oqWxi4hjjn00auRa6e1r-26" value="STATE/COUNTRY" style="rounded=0;whiteSpace=wrap;html=1;fontStyle=1" parent="1" vertex="1">
          <mxGeometry x="-80" y="330" width="120" height="30" as="geometry" />
        </mxCell>
        <mxCell id="oqWxi4hjjn00auRa6e1r-27" value="SEA/OCEAN/LAKE" style="rounded=0;whiteSpace=wrap;html=1;fontStyle=1" parent="1" vertex="1">
          <mxGeometry x="-80" y="410" width="120" height="30" as="geometry" />
        </mxCell>
        <mxCell id="oqWxi4hjjn00auRa6e1r-28" value="SHIP_MOVEMENT" style="rounded=0;whiteSpace=wrap;html=1;" parent="1" vertex="1">
          <mxGeometry x="-80" y="490" width="120" height="30" as="geometry" />
        </mxCell>
        <mxCell id="oqWxi4hjjn00auRa6e1r-29" value="PORT" style="rounded=0;whiteSpace=wrap;html=1;" parent="1" vertex="1">
          <mxGeometry x="-80" y="570" width="120" height="30" as="geometry" />
        </mxCell>
        <mxCell id="oqWxi4hjjn00auRa6e1r-30" value="VISITS" style="rounded=0;whiteSpace=wrap;html=1;" parent="1" vertex="1">
          <mxGeometry x="-80" y="650" width="120" height="30" as="geometry" />
        </mxCell>
        <mxCell id="oqWxi4hjjn00auRa6e1r-32" value="SName" style="rounded=0;whiteSpace=wrap;html=1;fontStyle=0" parent="1" vertex="1">
          <mxGeometry x="160" y="490" width="80" height="30" as="geometry" />
        </mxCell>
        <mxCell id="oqWxi4hjjn00auRa6e1r-33" value="PName" style="rounded=0;whiteSpace=wrap;html=1;fontStyle=0" parent="1" vertex="1">
          <mxGeometry x="160" y="570" width="80" height="30" as="geometry" />
        </mxCell>
        <mxCell id="oqWxi4hjjn00auRa6e1r-35" value="&lt;span&gt;StateName&lt;/span&gt;" style="rounded=0;whiteSpace=wrap;html=1;" parent="1" vertex="1">
          <mxGeometry x="240" y="570" width="80" height="30" as="geometry" />
        </mxCell>
        <mxCell id="oqWxi4hjjn00auRa6e1r-37" value="SName" style="rounded=0;whiteSpace=wrap;html=1;fontStyle=0" parent="1" vertex="1">
          <mxGeometry x="160" y="650" width="80" height="30" as="geometry" />
        </mxCell>
        <mxCell id="oqWxi4hjjn00auRa6e1r-39" value="StartDate" style="rounded=0;whiteSpace=wrap;html=1;" parent="1" vertex="1">
          <mxGeometry x="400" y="650" width="80" height="30" as="geometry" />
        </mxCell>
        <mxCell id="oqWxi4hjjn00auRa6e1r-40" value="EndDate" style="rounded=0;whiteSpace=wrap;html=1;" parent="1" vertex="1">
          <mxGeometry x="480" y="650" width="80" height="30" as="geometry" />
        </mxCell>
        <mxCell id="oqWxi4hjjn00auRa6e1r-41" value="" style="endArrow=none;html=1;exitX=0;exitY=0.75;exitDx=0;exitDy=0;entryX=0;entryY=0.75;entryDx=0;entryDy=0;" parent="1" source="oqWxi4hjjn00auRa6e1r-32" target="oqWxi4hjjn00auRa6e1r-20" edge="1">
          <mxGeometry width="50" height="50" relative="1" as="geometry">
            <mxPoint x="180" y="490" as="sourcePoint" />
            <mxPoint x="230" y="440" as="targetPoint" />
          </mxGeometry>
        </mxCell>
        <mxCell id="oqWxi4hjjn00auRa6e1r-42" value="" style="endArrow=none;html=1;exitX=0;exitY=0.75;exitDx=0;exitDy=0;entryX=1;entryY=0.75;entryDx=0;entryDy=0;" parent="1" source="oqWxi4hjjn00auRa6e1r-33" target="oqWxi4hjjn00auRa6e1r-35" edge="1">
          <mxGeometry width="50" height="50" relative="1" as="geometry">
            <mxPoint x="170" y="522.5" as="sourcePoint" />
            <mxPoint x="410" y="522.5" as="targetPoint" />
          </mxGeometry>
        </mxCell>
        <mxCell id="oqWxi4hjjn00auRa6e1r-44" value="" style="curved=1;endArrow=classic;html=1;entryX=0;entryY=0;entryDx=0;entryDy=0;exitX=0;exitY=0.5;exitDx=0;exitDy=0;" parent="1" source="oqWxi4hjjn00auRa6e1r-37" target="oqWxi4hjjn00auRa6e1r-2" edge="1">
          <mxGeometry width="50" height="50" relative="1" as="geometry">
            <mxPoint x="170" y="600" as="sourcePoint" />
            <mxPoint x="170" y="355" as="targetPoint" />
            <Array as="points">
              <mxPoint x="70" y="550" />
              <mxPoint x="40" y="400" />
            </Array>
          </mxGeometry>
        </mxCell>
        <mxCell id="oqWxi4hjjn00auRa6e1r-45" value="Ship_Type" style="rounded=0;whiteSpace=wrap;html=1;" parent="1" vertex="1">
          <mxGeometry x="320" y="170" width="80" height="30" as="geometry" />
        </mxCell>
        <mxCell id="oqWxi4hjjn00auRa6e1r-49" value="&lt;span&gt;PName&lt;/span&gt;" style="rounded=0;whiteSpace=wrap;html=1;" parent="1" vertex="1">
          <mxGeometry x="400" y="170" width="80" height="30" as="geometry" />
        </mxCell>
        <mxCell id="oqWxi4hjjn00auRa6e1r-50" value="Latitude" style="rounded=0;whiteSpace=wrap;html=1;" parent="1" vertex="1">
          <mxGeometry x="480" y="490" width="80" height="30" as="geometry" />
        </mxCell>
        <mxCell id="oqWxi4hjjn00auRa6e1r-51" value="SOL_Name" style="rounded=0;whiteSpace=wrap;html=1;" parent="1" vertex="1">
          <mxGeometry x="320" y="570" width="80" height="30" as="geometry" />
        </mxCell>
        <mxCell id="scKm5pmmGoPlDoRmN0rk-1" value="&#xa;&#xa;&lt;span style=&quot;color: rgb(0, 0, 0); font-family: helvetica; font-size: 12px; font-style: normal; font-weight: 400; letter-spacing: normal; text-align: center; text-indent: 0px; text-transform: none; word-spacing: 0px; background-color: rgb(248, 249, 250); display: inline; float: none;&quot;&gt;StateName&lt;/span&gt;&#xa;&#xa;" style="rounded=0;whiteSpace=wrap;html=1;" vertex="1" parent="1">
          <mxGeometry x="480" y="170" width="80" height="30" as="geometry" />
        </mxCell>
        <mxCell id="scKm5pmmGoPlDoRmN0rk-3" value="StateName" style="rounded=0;whiteSpace=wrap;html=1;" vertex="1" parent="1">
          <mxGeometry x="240" y="650" width="80" height="30" as="geometry" />
        </mxCell>
        <mxCell id="scKm5pmmGoPlDoRmN0rk-7" value="PName" style="rounded=0;whiteSpace=wrap;html=1;" vertex="1" parent="1">
          <mxGeometry x="320" y="650" width="80" height="30" as="geometry" />
        </mxCell>
        <mxCell id="scKm5pmmGoPlDoRmN0rk-8" value="" style="endArrow=none;html=1;exitX=0;exitY=0.75;exitDx=0;exitDy=0;entryX=1;entryY=0.75;entryDx=0;entryDy=0;" edge="1" parent="1" source="oqWxi4hjjn00auRa6e1r-37" target="oqWxi4hjjn00auRa6e1r-39">
          <mxGeometry width="50" height="50" relative="1" as="geometry">
            <mxPoint x="170" y="602.5" as="sourcePoint" />
            <mxPoint x="330" y="602.5" as="targetPoint" />
          </mxGeometry>
        </mxCell>
        <mxCell id="scKm5pmmGoPlDoRmN0rk-11" value="" style="curved=1;endArrow=classic;html=1;entryX=0.5;entryY=0;entryDx=0;entryDy=0;exitX=0.5;exitY=1;exitDx=0;exitDy=0;" edge="1" parent="1" source="oqWxi4hjjn00auRa6e1r-45" target="oqWxi4hjjn00auRa6e1r-7">
          <mxGeometry width="50" height="50" relative="1" as="geometry">
            <mxPoint x="300" y="460" as="sourcePoint" />
            <mxPoint x="350" y="410" as="targetPoint" />
            <Array as="points">
              <mxPoint x="340" y="230" />
              <mxPoint x="300" y="230" />
            </Array>
          </mxGeometry>
        </mxCell>
        <mxCell id="scKm5pmmGoPlDoRmN0rk-12" value="" style="curved=1;endArrow=classic;html=1;entryX=0.5;entryY=0;entryDx=0;entryDy=0;exitX=0.5;exitY=1;exitDx=0;exitDy=0;" edge="1" parent="1" source="oqWxi4hjjn00auRa6e1r-49" target="oqWxi4hjjn00auRa6e1r-33">
          <mxGeometry width="50" height="50" relative="1" as="geometry">
            <mxPoint x="370" y="210" as="sourcePoint" />
            <mxPoint x="210" y="260" as="targetPoint" />
            <Array as="points">
              <mxPoint x="420" y="240" />
              <mxPoint x="470" y="290" />
            </Array>
          </mxGeometry>
        </mxCell>
        <mxCell id="scKm5pmmGoPlDoRmN0rk-15" value="" style="curved=1;endArrow=classic;html=1;entryX=0.5;entryY=0;entryDx=0;entryDy=0;exitX=0.5;exitY=1;exitDx=0;exitDy=0;" edge="1" parent="1" source="scKm5pmmGoPlDoRmN0rk-1" target="oqWxi4hjjn00auRa6e1r-35">
          <mxGeometry width="50" height="50" relative="1" as="geometry">
            <mxPoint x="450" y="210" as="sourcePoint" />
            <mxPoint x="210" y="580" as="targetPoint" />
            <Array as="points">
              <mxPoint x="460" y="250" />
              <mxPoint x="510" y="310" />
            </Array>
          </mxGeometry>
        </mxCell>
        <mxCell id="scKm5pmmGoPlDoRmN0rk-17" value="" style="curved=1;endArrow=classic;html=1;entryX=1;entryY=0.75;entryDx=0;entryDy=0;exitX=0.5;exitY=0;exitDx=0;exitDy=0;" edge="1" parent="1" target="oqWxi4hjjn00auRa6e1r-14">
          <mxGeometry width="50" height="50" relative="1" as="geometry">
            <mxPoint x="360" y="570" as="sourcePoint" />
            <mxPoint x="350" y="410" as="targetPoint" />
            <Array as="points">
              <mxPoint x="350" y="460" />
              <mxPoint x="290" y="450" />
            </Array>
          </mxGeometry>
        </mxCell>
        <mxCell id="scKm5pmmGoPlDoRmN0rk-18" value="" style="curved=1;endArrow=classic;html=1;entryX=0.5;entryY=1;entryDx=0;entryDy=0;exitX=0.5;exitY=0;exitDx=0;exitDy=0;" edge="1" parent="1" source="scKm5pmmGoPlDoRmN0rk-3" target="oqWxi4hjjn00auRa6e1r-10">
          <mxGeometry width="50" height="50" relative="1" as="geometry">
            <mxPoint x="170" y="600" as="sourcePoint" />
            <mxPoint x="170" y="355" as="targetPoint" />
            <Array as="points">
              <mxPoint x="130" y="530" />
              <mxPoint x="120" y="480" />
            </Array>
          </mxGeometry>
        </mxCell>
        <mxCell id="scKm5pmmGoPlDoRmN0rk-19" value="" style="curved=1;endArrow=classic;html=1;exitX=0.5;exitY=0;exitDx=0;exitDy=0;entryX=0.5;entryY=1;entryDx=0;entryDy=0;" edge="1" parent="1" source="scKm5pmmGoPlDoRmN0rk-7" target="oqWxi4hjjn00auRa6e1r-33">
          <mxGeometry width="50" height="50" relative="1" as="geometry">
            <mxPoint x="350" y="645" as="sourcePoint" />
            <mxPoint x="350" y="410" as="targetPoint" />
            <Array as="points">
              <mxPoint x="330" y="620" />
              <mxPoint x="300" y="630" />
            </Array>
          </mxGeometry>
        </mxCell>
        <mxCell id="scKm5pmmGoPlDoRmN0rk-20" value="" style="curved=1;endArrow=classic;html=1;entryX=0.5;entryY=1;entryDx=0;entryDy=0;exitX=0.5;exitY=0;exitDx=0;exitDy=0;" edge="1" parent="1" source="scKm5pmmGoPlDoRmN0rk-7" target="oqWxi4hjjn00auRa6e1r-35">
          <mxGeometry width="50" height="50" relative="1" as="geometry">
            <mxPoint x="370" y="580" as="sourcePoint" />
            <mxPoint x="250" y="442.5" as="targetPoint" />
            <Array as="points">
              <mxPoint x="340" y="600" />
              <mxPoint x="310" y="620" />
            </Array>
          </mxGeometry>
        </mxCell>
        <mxCell id="scKm5pmmGoPlDoRmN0rk-21" value="&lt;span class=&quot;fontstyle0&quot;&gt;&lt;b&gt;&lt;font style=&quot;font-size: 16px&quot;&gt;SHIP_TRACKING RELATIONAL SCHEMA&lt;/font&gt;&lt;/b&gt;&lt;/span&gt;" style="text;html=1;strokeColor=none;fillColor=none;align=center;verticalAlign=middle;whiteSpace=wrap;rounded=0;" vertex="1" parent="1">
          <mxGeometry x="195" y="80" width="330" height="40" as="geometry" />
        </mxCell>
      </root>
    </mxGraphModel>
  </diagram>
</mxfile>
